#!OML:ASF I:\Actors\actors\Patient Classification 1\Patient 1\Session 1\Subject1.ASF
:FULLY-SPECIFIED
:DEGREES
729
root -0.448965 17.616 8.04607 9.50952 -5.44865 -8.19491
lowerback 3.49591 -0.106349 4.29899
upperback -9.86471 0.493517 2.18319
thorax -12.6297 -0.0558611 -0.0913185
lowerneck -13.9688 2.31313 6.38165
upperneck 23.8014 2.21727 -2.18852
head 9.97541 1.34722 -1.56355
rclavicle 1.9133e-014 -2.74323e-014
rhumerus -6.00975 32.628 -76.7273
rradius 112.448
rwrist 19.9472
rhand -32.5038 -35.4853
rfingers 7.12502
rthumb -5.73519 654.612
lclavicle 1.9133e-014 -2.74323e-014
lhumerus -10.1875 -52.8001 69.6896
lradius 82.0033
lwrist 52.2248
lhand -27.4048 7.18803
lfingers 7.12502
lthumb -0.81109 37.1662
rfemur -4.71929 24.7246 23.2699
rtibia 2.94522
rfoot -10.771 -22.8377
rtoes -1.97303
lfemur 4.35142 -39.4062 -12.7968
ltibia -3.22552
lfoot -20.6699 51.2723
ltoes 12.7915
730
root -0.4556 17.6084 8.04692 9.4588 -5.36096 -8.20494
lowerback 3.31684 -0.0458596 4.33185
upperback -9.78144 0.557745 2.11901
thorax -12.4171 -0.0281375 -0.191239
lowerneck -13.9858 2.65466 6.65587
upperneck 23.3038 2.65145 -2.27486
head 9.82873 1.55794 -1.58089
rclavicle -1.16786e-014 -4.09496e-014
rhumerus -11.5117 35.3572 -80.4426
rradius 105.774
rwrist 21.5198
rhand -31.1385 -35.556
rfingers 7.12502
rthumb -4.41686 654.51
lclavicle -1.16786e-014 -4.09496e-014
lhumerus -12.6189 -54.0589 73.4181
lradius 78.9975
lwrist 51.4336
lhand -27.6503 7.54843
lfingers 7.12502
lthumb -1.04819 37.5256
rfemur -4.51771 24.8369 23.4034
rtibia 2.78322
rfoot -10.7715 -23.2131
rtoes -2.16806
lfemur 4.24119 -38.9922 -12.6235
ltibia -3.15135
lfoot -20.1327 50.749
ltoes 12.2527
731
root -0.46259 17.6015 8.04793 9.50112 -5.27219 -8.22542
lowerback 3.1492 0.0484714 4.3377
upperback -9.78764 0.677185 2.12517
thorax -12.3158 0.0309771 -0.204734
lowerneck -14.1066 3.05507 6.72507
upperneck 22.9171 3.18419 -2.25241
head 9.74274 1.80976 -1.51293
rclavicle -1.60519e-014 0
rhumerus -16.5131 37.9879 -84.1891
rradius 96.961
rwrist 21.5761
rhand -28.3355 -37.1968
rfingers 7.12502
rthumb -1.70994 652.83
lclavicle -1.60519e-014 0
lhumerus -15.4383 -55.7164 77.6742
lradius 75.624
lwrist 51.572
lhand -26.9823 9.20149
lfingers 7.12502
lthumb -0.402973 39.1809
rfemur -4.46167 24.8498 23.5088
rtibia 2.66371
rfoot -10.8108 -23.5422
rtoes -2.24736
lfemur 3.95679 -38.3785 -12.3288
ltibia -3.04721
lfoot -19.3434 50.0966
ltoes 11.3498
732
root -0.466216 17.5941 8.04624 9.6685 -5.36302 -8.35712
lowerback 2.90514 0.240132 4.4768
upperback -9.83574 0.939889 2.15432
thorax -12.2114 0.147476 -0.285018
lowerneck -14.4253 3.50024 6.78381
upperneck 22.7851 3.74893 -2.14933
head 9.78504 2.08624 -1.40853
rclavicle -6.01324e-015 1.35174e-014
rhumerus -20.2826 40.2353 -87.6135
rradius 86.994
rwrist 19.5737
rhand -19.2908 -39.8337
rfingers 7.12502
rthumb 7.02443 650.303
lclavicle -6.01324e-015 1.35174e-014
lhumerus -18.7772 -57.8188 82.2798
lradius 72.2974
lwrist 52.1248
lhand -25.3893 11.3965
lfingers 7.12502
lthumb 1.13557 41.3732
rfemur -4.73039 24.576 23.6118
rtibia 2.75012
rfoot -10.7294 -23.4443
rtoes -2.90678
lfemur 3.66919 -37.9427 -11.948
ltibia -3.03756
lfoot -18.9599 49.7387
ltoes 11.2443
733
root -0.472425 17.5943 8.05747 9.47419 -4.55233 -8.2977
lowerback 2.68748 0.131076 4.59492
upperback -9.78942 0.784424 2.12047
thorax -12.0285 0.0634303 -0.36768
lowerneck -14.6434 3.9754 6.96971
upperneck 22.6156 4.31251 -1.97766
head 9.79698 2.38097 -1.301
rclavicle -3.08116e-015 1.43125e-014
rhumerus -22.1319 41.7422 -90.1849
rradius 76.9698
rwrist 14.3759
rhand -2.68084 -43.751
rfingers 7.12502
rthumb 23.0202 647.604
lclavicle -3.08116e-015 1.43125e-014
lhumerus -22.9938 -60.2265 87.2702
lradius 69.5606
lwrist 53.1316
lhand -23.2547 13.9691
lfingers 7.12502
lthumb 3.19716 43.9248
rfemur -4.13917 24.7275 23.8661
rtibia 2.41893
rfoot -11.0247 -24.5961
rtoes -2.7115
lfemur 3.44077 -37.5968 -11.6914
ltibia -2.97349
lfoot -17.6296 48.721
ltoes 9.95406
734
root -0.478942 17.5925 8.06454 9.29985 -3.96454 -8.19126
lowerback 2.62585 0.225899 4.67875
upperback -9.75838 0.902944 1.97318
thorax -11.9462 0.106711 -0.58985
lowerneck -14.8468 4.36128 7.23731
upperneck 22.1767 4.71843 -1.77572
head 9.70449 2.60969 -1.21728
rclavicle -6.4605e-015 3.57812e-015
rhumerus -22.3123 41.7803 -91.4969
rradius 68.9268
rwrist 7.45955
rhand 21.2511 -56.9449
rfingers 7.12502
rthumb 45.6987 639.836
lclavicle -6.4605e-015 3.57812e-015
lhumerus -28.1209 -62.9948 92.6765
lradius 68.3603
lwrist 53.6657
lhand -20.725 13.8539
lfingers 7.12502
lthumb 5.6399 43.7589
rfemur -3.7243 24.6411 23.9675
rtibia 2.25953
rfoot -11.3809 -25.1726
rtoes -2.21931
lfemur 3.29149 -37.3072 -11.608
ltibia -2.91389
lfoot -16.7052 47.9787
ltoes 8.71246
735
root -0.485224 17.588 8.0672 9.11296 -3.44215 -8.09214
lowerback 2.84304 0.5308 4.86323
upperback -9.67947 1.32234 1.7122
thorax -11.9603 0.278317 -1.03185
lowerneck -15.2048 4.6208 7.43677
upperneck 21.3083 4.96207 -1.645
head 9.48115 2.74191 -1.16814
rclavicle -1.63997e-015 2.5842e-014
rhumerus -22.9755 42.944 -92.9069
rradius 62.2979
rwrist -0.910826
rhand 22.1584 -58.6041
rfingers 7.12502
rthumb 46.5403 638.53
lclavicle -1.63997e-015 2.5842e-014
lhumerus -33.6721 -65.5597 97.9419
lradius 69.3102
lwrist 52.5925
lhand -18.9215 13.8252
lfingers 7.12502
lthumb 7.38094 43.6764
rfemur -3.38605 24.4831 24.0214
rtibia 2.17109
rfoot -11.7077 -25.5027
rtoes -1.72495
lfemur 3.14557 -36.9115 -11.5424
ltibia -2.81534
lfoot -15.9364 47.1967
ltoes 7.67206
736
root -0.490586 17.5804 8.06557 9.05824 -2.75535 -8.04769
lowerback 3.18542 0.808407 5.16172
upperback -9.63515 1.73381 1.52191
thorax -12.0875 0.436198 -1.46339
lowerneck -15.261 4.8775 7.49307
upperneck 19.837 5.30289 -1.71949
head 9.00009 2.87953 -1.16482
rclavicle -1.68967e-014 -2.38542e-014
rhumerus -25.2546 47.392 -95.386
rradius 62.9585
rwrist -4.27058
rhand 14.6653 -59.3703
rfingers 7.12502
rthumb 39.5365 635.265
lclavicle -1.68967e-014 -2.38542e-014
lhumerus -38.0544 -66.1894 101.233
lradius 72.565
lwrist 50.3827
lhand -12.4436 18.2909
lfingers 7.12502
lthumb 13.6295 47.8247
rfemur -3.24201 24.2539 24.0398
rtibia 2.09914
rfoot -12.001 -25.8358
rtoes -1.37503
lfemur 2.68874 -36.578 -11.2367
ltibia -2.61601
lfoot -15.2333 46.3179
ltoes 6.81313
737
root -0.493171 17.5727 8.06118 9.33912 -1.94051 -8.0668
lowerback 3.31967 1.03311 5.57856
upperback -9.70448 2.08703 1.43424
thorax -12.2187 0.558401 -1.84018
lowerneck -14.8675 5.17749 7.59129
upperneck 18.0924 5.77574 -2.0413
head 8.36936 3.05912 -1.24961
rclavicle -1.3418e-015 3.97569e-015
rhumerus -26.6682 49.7593 -96.7411
rradius 66.4949
rwrist -0.188306
rhand 13.9001 -59.2779
rfingers 7.12502
rthumb 38.8154 635.149
lclavicle -1.3418e-015 3.97569e-015
lhumerus -41.652 -65.6693 102.909
lradius 77.1886
lwrist 47.4941
lhand -7.57578 16.4999
lfingers 7.12502
lthumb 18.317 45.6575
rfemur -3.57287 23.7611 23.9243
rtibia 2.09417
rfoot -12.2471 -25.9653
rtoes -0.990955
lfemur 1.68604 -36.3179 -10.5477
ltibia -2.35876
lfoot -14.4157 45.4479
ltoes 5.7768
738
root -0.518439 17.5887 8.07619 9.17616 -0.670436 -8.12295
lowerback 3.56429 1.1084 5.82734
upperback -9.65758 2.23443 1.4262
thorax -12.3003 0.604951 -2.01333
lowerneck -14.4053 5.49382 7.73023
upperneck 16.8025 6.24152 -2.2482
head 7.89013 3.25937 -1.30467
rclavicle -9.19379e-015 2.78299e-015
rhumerus -25.9416 50.5383 -96.5654
rradius 71.1488
rwrist 1.781
rhand 14.0195 -56.5506
rfingers 7.12502
rthumb 38.9279 637.909
lclavicle -9.19379e-015 2.78299e-015
lhumerus -43.0284 -64.2466 101.705
lradius 83.2422
lwrist 47.5092
lhand -2.05802 17.2495
lfingers 7.12502
lthumb 23.6177 45.819
rfemur -2.88226 24.3307 24.4001
rtibia 1.65734
rfoot -12.92 -27.5281
rtoes 0.644195
lfemur 1.34293 -36.0776 -9.96349
ltibia -2.42407
lfoot -13.0131 44.2202
ltoes 3.56495
739
root -0.544685 17.604 8.07788 9.38855 0.333953 -8.4489
lowerback 3.63494 1.32909 6.35853
upperback -9.8352 2.60655 1.41515
thorax -12.5118 0.724063 -2.37403
lowerneck -14.1743 5.75092 7.72637
upperneck 16.3474 6.56295 -2.00795
head 7.70735 3.43271 -1.19654
rclavicle 2.44008e-014 2.66371e-014
rhumerus -23.2951 50.1339 -95.1385
rradius 77.0648
rwrist 0.924471
rhand 15.4527 -56.8666
rfingers 7.12502
rthumb 40.2776 637.992
lclavicle 2.44008e-014 2.66371e-014
lhumerus -43.0202 -62.6711 98.5687
lradius 89.8514
lwrist 48.7446
lhand 0.430736 16.7528
lfingers 7.12502
lthumb 26.0029 44.9936
rfemur -2.98946 25.0128 24.8702
rtibia 1.58745
rfoot -13.5337 -28.8597
rtoes 2.09648
lfemur 0.488906 -36.1844 -8.77752
ltibia -2.45033
lfoot -12.0749 43.6639
ltoes 1.74012
740
root -0.569318 17.6143 8.08313 9.58989 1.35817 -8.65604
lowerback 3.56923 1.6102 6.80443
upperback -10.0802 3.03656 1.31046
thorax -12.7043 0.871363 -2.79403
lowerneck -13.8322 5.85442 7.83408
upperneck 16.3126 6.65586 -1.7073
head 7.63534 3.51548 -1.1132
rclavicle -9.93923e-017 -4.77083e-014
rhumerus -18.5072 50.3115 -92.5849
rradius 83.0826
rwrist -3.64387
rhand 12.9423 -57.9343
rfingers 7.12502
rthumb 37.9113 636.242
lclavicle -9.93923e-017 -4.77083e-014
lhumerus -40.9032 -60.7256 93.1301
lradius 96.904
lwrist 47.8615
lhand 2.74427 18.058
lfingers 7.12502
lthumb 28.2162 45.9539
rfemur -3.05746 25.5993 25.2049
rtibia 1.50114
rfoot -14.2041 -30.0571
rtoes 3.65667
lfemur -0.381359 -36.4551 -7.80808
ltibia -2.3814
lfoot -11.2083 43.2559
ltoes 0.0713127
741
root -0.592105 17.6104 8.12465 9.45778 2.83688 -8.31176
lowerback 3.12866 1.80223 6.70769
upperback -10.1966 3.23767 1.09267
thorax -12.5363 0.972053 -2.98857
lowerneck -13.2964 5.82383 8.1057
upperneck 16.5119 6.57628 -1.5279
head 7.60883 3.51978 -1.11845
rclavicle -2.13197e-014 -3.97569e-015
rhumerus -11.2817 50.6974 -88.3536
rradius 88.5103
rwrist -6.58798
rhand 9.85571 -57.9643
rfingers 7.12502
rthumb 34.9895 635.477
lclavicle -2.13197e-014 -3.97569e-015
lhumerus -37.2956 -58.5467 86.4697
lradius 103.331
lwrist 45.6116
lhand 2.35529 15.558
lfingers 7.12502
lthumb 27.8443 43.5146
rfemur -2.11168 25.7678 25.3401
rtibia 0.824373
rfoot -15.1239 -31.3745
rtoes 5.50454
lfemur -0.689848 -36.4393 -7.96778
ltibia -2.27588
lfoot -9.94478 42.0361
ltoes -2.19162
